<svg width="90" height="7" viewBox="0 0 90 7" fill="none" xmlns="http://www.w3.org/2000/svg">
<path d="M4.51218 1.28875V5.62708H4.05975V3.62525H1.3452V5.62708H0.88658V1.28875H1.3452V3.22241H4.05975V1.28875H4.51218ZM8.67372 4.13345H5.94678C5.97157 4.47226 6.10172 4.74702 6.33722 4.95773C6.57273 5.16432 6.87022 5.26761 7.22968 5.26761C7.43213 5.26761 7.61806 5.23249 7.78746 5.16226C7.95686 5.08788 8.10354 4.98046 8.22749 4.83998L8.4754 5.12507C8.33079 5.2986 8.14899 5.43082 7.93001 5.52172C7.71516 5.61261 7.47758 5.65806 7.21728 5.65806C6.88261 5.65806 6.58513 5.58782 6.32483 5.44734C6.06866 5.30273 5.86827 5.10441 5.72366 4.85238C5.57905 4.60034 5.50675 4.31525 5.50675 3.99711C5.50675 3.67896 5.57492 3.39387 5.71127 3.14184C5.85175 2.8898 6.0418 2.69354 6.28145 2.55307C6.52522 2.41259 6.79791 2.34235 7.09953 2.34235C7.40115 2.34235 7.67177 2.41259 7.91141 2.55307C8.15105 2.69354 8.33905 2.8898 8.4754 3.14184C8.61174 3.38974 8.67992 3.67483 8.67992 3.99711L8.67372 4.13345ZM7.09953 2.7204C6.78552 2.7204 6.52109 2.82163 6.30624 3.02408C6.09552 3.22241 5.9757 3.48271 5.94678 3.80498H8.25848C8.22956 3.48271 8.10767 3.22241 7.89282 3.02408C7.6821 2.82163 7.41767 2.7204 7.09953 2.7204ZM10.6251 2.34235C11.0507 2.34235 11.3771 2.44977 11.6044 2.66462C11.8316 2.87534 11.9452 3.18935 11.9452 3.60666V5.62708H11.5238V5.11887C11.4246 5.28827 11.278 5.42049 11.0838 5.51552C10.8937 5.61055 10.6665 5.65806 10.402 5.65806C10.0384 5.65806 9.74921 5.5713 9.53436 5.39776C9.31951 5.22423 9.21209 4.99492 9.21209 4.70983C9.21209 4.433 9.31125 4.20989 9.50957 4.04049C9.71203 3.87109 10.0322 3.78639 10.4702 3.78639H11.5052V3.58806C11.5052 3.30711 11.4267 3.09432 11.2697 2.94971C11.1127 2.80097 10.8834 2.7266 10.5818 2.7266C10.3752 2.7266 10.1768 2.76172 9.98679 2.83196C9.79673 2.89807 9.63352 2.99103 9.49718 3.11085L9.29885 2.78238C9.46412 2.6419 9.66245 2.53447 9.89382 2.4601C10.1252 2.3816 10.369 2.34235 10.6251 2.34235ZM10.4702 5.311C10.7181 5.311 10.9309 5.25522 11.1086 5.14366C11.2862 5.02797 11.4184 4.8627 11.5052 4.64785V4.11486H10.4826C9.92481 4.11486 9.64592 4.30905 9.64592 4.69744C9.64592 4.88749 9.71822 5.0383 9.86284 5.14986C10.0074 5.25729 10.2099 5.311 10.4702 5.311ZM13.1404 1.02846H13.5804V5.62708H13.1404V1.02846ZM16.5336 5.42875C16.451 5.50312 16.3477 5.56097 16.2238 5.60228C16.1039 5.63947 15.9779 5.65806 15.8457 5.65806C15.5399 5.65806 15.3044 5.57543 15.1392 5.41016C14.9739 5.24489 14.8913 5.01145 14.8913 4.70983V2.73899H14.3087V2.36714H14.8913V1.65441H15.3313V2.36714H16.3229V2.73899H15.3313V4.68504C15.3313 4.87923 15.3788 5.02797 15.4738 5.13127C15.573 5.23043 15.7135 5.28001 15.8953 5.28001C15.9862 5.28001 16.0729 5.26555 16.1556 5.23663C16.2423 5.2077 16.3167 5.16639 16.3787 5.11267L16.5336 5.42875ZM18.9956 2.34235C19.4047 2.34235 19.729 2.46217 19.9687 2.70181C20.2124 2.93732 20.3343 3.28232 20.3343 3.73681V5.62708H19.8943V3.78019C19.8943 3.44139 19.8096 3.18315 19.6402 3.00549C19.4708 2.82783 19.2291 2.73899 18.9151 2.73899C18.5639 2.73899 18.285 2.84435 18.0784 3.05507C17.8759 3.26166 17.7747 3.54881 17.7747 3.91654V5.62708H17.3347V1.02846H17.7747V2.93732C17.8945 2.74726 18.0598 2.60058 18.2705 2.49729C18.4812 2.39399 18.7229 2.34235 18.9956 2.34235ZM22.8921 5.65806C22.5699 5.65806 22.2806 5.58782 22.0245 5.44734C21.7724 5.30687 21.5741 5.11061 21.4295 4.85857C21.2849 4.60241 21.2126 4.31525 21.2126 3.99711C21.2126 3.67896 21.2849 3.39387 21.4295 3.14184C21.5741 2.8898 21.7724 2.69354 22.0245 2.55307C22.2806 2.41259 22.5699 2.34235 22.8921 2.34235C23.1731 2.34235 23.4231 2.39813 23.642 2.50968C23.8652 2.61711 24.0407 2.77618 24.1688 2.9869L23.8404 3.21001C23.7329 3.04887 23.5966 2.92905 23.4313 2.85055C23.266 2.76792 23.0863 2.7266 22.8921 2.7266C22.6566 2.7266 22.4438 2.78031 22.2538 2.88774C22.0678 2.99103 21.9212 3.13977 21.8137 3.33396C21.7105 3.52815 21.6588 3.7492 21.6588 3.99711C21.6588 4.24914 21.7105 4.47226 21.8137 4.66645C21.9212 4.85651 22.0678 5.00525 22.2538 5.11267C22.4438 5.21597 22.6566 5.26761 22.8921 5.26761C23.0863 5.26761 23.266 5.22836 23.4313 5.14986C23.5966 5.07136 23.7329 4.95154 23.8404 4.7904L24.1688 5.01351C24.0407 5.22423 23.8652 5.38537 23.642 5.49693C23.4189 5.60435 23.169 5.65806 22.8921 5.65806ZM26.1736 2.34235C26.5992 2.34235 26.9256 2.44977 27.1528 2.66462C27.3801 2.87534 27.4937 3.18935 27.4937 3.60666V5.62708H27.0723V5.11887C26.9731 5.28827 26.8264 5.42049 26.6322 5.51552C26.4422 5.61055 26.2149 5.65806 25.9505 5.65806C25.5869 5.65806 25.2977 5.5713 25.0828 5.39776C24.868 5.22423 24.7606 4.99492 24.7606 4.70983C24.7606 4.433 24.8597 4.20989 25.058 4.04049C25.2605 3.87109 25.5807 3.78639 26.0187 3.78639H27.0537V3.58806C27.0537 3.30711 26.9752 3.09432 26.8182 2.94971C26.6612 2.80097 26.4318 2.7266 26.1302 2.7266C25.9236 2.7266 25.7253 2.76172 25.5353 2.83196C25.3452 2.89807 25.182 2.99103 25.0456 3.11085L24.8473 2.78238C25.0126 2.6419 25.2109 2.53447 25.4423 2.4601C25.6737 2.3816 25.9174 2.34235 26.1736 2.34235ZM26.0187 5.311C26.2666 5.311 26.4794 5.25522 26.657 5.14366C26.8347 5.02797 26.9669 4.8627 27.0537 4.64785V4.11486H26.0311C25.4733 4.11486 25.1944 4.30905 25.1944 4.69744C25.1944 4.88749 25.2667 5.0383 25.4113 5.14986C25.5559 5.25729 25.7584 5.311 26.0187 5.311ZM29.1103 3.00549C29.2136 2.78651 29.3665 2.62124 29.5689 2.50968C29.7755 2.39813 30.0296 2.34235 30.3312 2.34235V2.76998L30.2259 2.76378C29.8829 2.76378 29.6144 2.86914 29.4202 3.07986C29.226 3.29058 29.1289 3.586 29.1289 3.96612V5.62708H28.6889V2.36714H29.1103V3.00549ZM33.9362 4.13345H31.2093C31.234 4.47226 31.3642 4.74702 31.5997 4.95773C31.8352 5.16432 32.1327 5.26761 32.4922 5.26761C32.6946 5.26761 32.8805 5.23249 33.0499 5.16226C33.2193 5.08788 33.366 4.98046 33.49 4.83998L33.7379 5.12507C33.5933 5.2986 33.4115 5.43082 33.1925 5.52172C32.9776 5.61261 32.7401 5.65806 32.4798 5.65806C32.1451 5.65806 31.8476 5.58782 31.5873 5.44734C31.3311 5.30273 31.1308 5.10441 30.9861 4.85238C30.8415 4.60034 30.7692 4.31525 30.7692 3.99711C30.7692 3.67896 30.8374 3.39387 30.9737 3.14184C31.1142 2.8898 31.3043 2.69354 31.5439 2.55307C31.7877 2.41259 32.0604 2.34235 32.362 2.34235C32.6636 2.34235 32.9343 2.41259 33.1739 2.55307C33.4135 2.69354 33.6015 2.8898 33.7379 3.14184C33.8742 3.38974 33.9424 3.67483 33.9424 3.99711L33.9362 4.13345ZM32.362 2.7204C32.048 2.7204 31.7836 2.82163 31.5687 3.02408C31.358 3.22241 31.2382 3.48271 31.2093 3.80498H33.521C33.492 3.48271 33.3702 3.22241 33.1553 3.02408C32.9446 2.82163 32.6802 2.7204 32.362 2.7204ZM37.6004 2.34235C38.026 2.34235 38.3524 2.44977 38.5797 2.66462C38.8069 2.87534 38.9205 3.18935 38.9205 3.60666V5.62708H38.4991V5.11887C38.3999 5.28827 38.2533 5.42049 38.0591 5.51552C37.869 5.61055 37.6418 5.65806 37.3773 5.65806C37.0137 5.65806 36.7245 5.5713 36.5097 5.39776C36.2948 5.22423 36.1874 4.99492 36.1874 4.70983C36.1874 4.433 36.2865 4.20989 36.4849 4.04049C36.6873 3.87109 37.0075 3.78639 37.4455 3.78639H38.4805V3.58806C38.4805 3.30711 38.402 3.09432 38.245 2.94971C38.088 2.80097 37.8587 2.7266 37.5571 2.7266C37.3505 2.7266 37.1521 2.76172 36.9621 2.83196C36.772 2.89807 36.6088 2.99103 36.4725 3.11085L36.2742 2.78238C36.4394 2.6419 36.6377 2.53447 36.8691 2.4601C37.1005 2.3816 37.3443 2.34235 37.6004 2.34235ZM37.4455 5.311C37.6934 5.311 37.9062 5.25522 38.0838 5.14366C38.2615 5.02797 38.3937 4.8627 38.4805 4.64785V4.11486H37.4579C36.9001 4.11486 36.6212 4.30905 36.6212 4.69744C36.6212 4.88749 36.6935 5.0383 36.8381 5.14986C36.9827 5.25729 37.1852 5.311 37.4455 5.311ZM41.8324 5.42875C41.7498 5.50312 41.6465 5.56097 41.5226 5.60228C41.4027 5.63947 41.2767 5.65806 41.1445 5.65806C40.8387 5.65806 40.6032 5.57543 40.438 5.41016C40.2727 5.24489 40.1901 5.01145 40.1901 4.70983V2.73899H39.6075V2.36714H40.1901V1.65441H40.6301V2.36714H41.6217V2.73899H40.6301V4.68504C40.6301 4.87923 40.6776 5.02797 40.7726 5.13127C40.8718 5.23043 41.0123 5.28001 41.1941 5.28001C41.285 5.28001 41.3717 5.26555 41.4544 5.23663C41.5411 5.2077 41.6155 5.16639 41.6775 5.11267L41.8324 5.42875ZM46.9948 2.36714L45.3649 6.01752C45.2327 6.32327 45.0798 6.54019 44.9062 6.66827C44.7327 6.79636 44.5241 6.8604 44.2803 6.8604C44.1233 6.8604 43.9766 6.83561 43.8403 6.78603C43.7039 6.73645 43.5862 6.66207 43.487 6.56291L43.6915 6.23444C43.8568 6.39971 44.0551 6.48234 44.2865 6.48234C44.4352 6.48234 44.5612 6.44103 44.6645 6.35839C44.772 6.27576 44.8711 6.13528 44.962 5.93696L45.1046 5.62088L43.6481 2.36714H44.1068L45.3339 5.13746L46.561 2.36714H46.9948ZM48.8562 5.65806C48.5422 5.65806 48.2592 5.58782 48.0072 5.44734C47.7551 5.30273 47.5568 5.10441 47.4122 4.85238C47.2676 4.60034 47.1953 4.31525 47.1953 3.99711C47.1953 3.67896 47.2676 3.39387 47.4122 3.14184C47.5568 2.8898 47.7551 2.69354 48.0072 2.55307C48.2592 2.41259 48.5422 2.34235 48.8562 2.34235C49.1703 2.34235 49.4533 2.41259 49.7053 2.55307C49.9574 2.69354 50.1536 2.8898 50.2941 3.14184C50.4387 3.39387 50.511 3.67896 50.511 3.99711C50.511 4.31525 50.4387 4.60034 50.2941 4.85238C50.1536 5.10441 49.9574 5.30273 49.7053 5.44734C49.4533 5.58782 49.1703 5.65806 48.8562 5.65806ZM48.8562 5.26761C49.0876 5.26761 49.2942 5.21597 49.476 5.11267C49.6619 5.00525 49.8065 4.85444 49.9098 4.66025C50.0131 4.46606 50.0648 4.24501 50.0648 3.99711C50.0648 3.7492 50.0131 3.52815 49.9098 3.33396C49.8065 3.13977 49.6619 2.99103 49.476 2.88774C49.2942 2.78031 49.0876 2.7266 48.8562 2.7266C48.6249 2.7266 48.4162 2.78031 48.2303 2.88774C48.0485 2.99103 47.9039 3.13977 47.7965 3.33396C47.6932 3.52815 47.6415 3.7492 47.6415 3.99711C47.6415 4.24501 47.6932 4.46606 47.7965 4.66025C47.9039 4.85444 48.0485 5.00525 48.2303 5.11267C48.4162 5.21597 48.6249 5.26761 48.8562 5.26761ZM54.347 2.36714V5.62708H53.9256V5.03211C53.8099 5.23043 53.6508 5.38537 53.4484 5.49693C53.2459 5.60435 53.0145 5.65806 52.7542 5.65806C52.3287 5.65806 51.9919 5.54031 51.744 5.3048C51.5003 5.06516 51.3784 4.71603 51.3784 4.25741V2.36714H51.8184V4.21402C51.8184 4.55696 51.9031 4.81726 52.0725 4.99492C52.2419 5.17258 52.4836 5.26142 52.7976 5.26142C53.1406 5.26142 53.4112 5.15812 53.6095 4.95154C53.8078 4.74082 53.907 4.44953 53.907 4.07768V2.36714H54.347ZM56.0009 3.00549C56.1042 2.78651 56.257 2.62124 56.4595 2.50968C56.6661 2.39813 56.9202 2.34235 57.2218 2.34235V2.76998L57.1164 2.76378C56.7735 2.76378 56.5049 2.86914 56.3107 3.07986C56.1166 3.29058 56.0195 3.586 56.0195 3.96612V5.62708H55.5794V2.36714H56.0009V3.00549ZM60.7674 1.36932C60.5773 1.36932 60.4327 1.42097 60.3335 1.52426C60.2385 1.62756 60.191 1.78043 60.191 1.98289V2.36714H61.195V2.73899H60.2034V5.62708H59.7633V2.73899H59.1808V2.36714H59.7633V1.96429C59.7633 1.66681 59.848 1.4313 60.0174 1.25777C60.191 1.08423 60.4347 0.997468 60.7488 0.997468C60.8727 0.997468 60.9925 1.01606 61.1082 1.05325C61.2239 1.0863 61.321 1.13588 61.3995 1.20199L61.2508 1.53046C61.1227 1.42304 60.9615 1.36932 60.7674 1.36932ZM62.2858 2.36714H62.7258V5.62708H62.2858V2.36714ZM62.5089 1.65441C62.418 1.65441 62.3415 1.62343 62.2796 1.56145C62.2176 1.49947 62.1866 1.4251 62.1866 1.33834C62.1866 1.2557 62.2176 1.1834 62.2796 1.12142C62.3415 1.05944 62.418 1.02846 62.5089 1.02846C62.5998 1.02846 62.6762 1.05944 62.7382 1.12142C62.8002 1.17926 62.8312 1.2495 62.8312 1.33214C62.8312 1.42304 62.8002 1.49947 62.7382 1.56145C62.6762 1.62343 62.5998 1.65441 62.5089 1.65441ZM65.6168 2.34235C66.0259 2.34235 66.3502 2.46217 66.5899 2.70181C66.8336 2.93732 66.9555 3.28232 66.9555 3.73681V5.62708H66.5155V3.78019C66.5155 3.44139 66.4308 3.18315 66.2614 3.00549C66.092 2.82783 65.8503 2.73899 65.5363 2.73899C65.1851 2.73899 64.9062 2.84435 64.6996 3.05507C64.4971 3.26166 64.3959 3.54881 64.3959 3.91654V5.62708H63.9559V2.36714H64.3773V2.9683C64.4971 2.76998 64.6624 2.61711 64.8731 2.50968C65.088 2.39813 65.3359 2.34235 65.6168 2.34235ZM71.1805 2.36714V5.23043C71.1805 5.78408 71.0441 6.19312 70.7714 6.45755C70.5029 6.72612 70.0959 6.8604 69.5505 6.8604C69.2489 6.8604 68.9617 6.81495 68.689 6.72405C68.4205 6.63728 68.2015 6.5154 68.0321 6.35839L68.2552 6.02372C68.4122 6.1642 68.6023 6.27369 68.8254 6.35219C69.0526 6.4307 69.2902 6.46995 69.5381 6.46995C69.9513 6.46995 70.255 6.37285 70.4492 6.17866C70.6434 5.9886 70.7405 5.69112 70.7405 5.28621V4.87097C70.6041 5.07755 70.4244 5.23456 70.2013 5.34199C69.9823 5.44941 69.7385 5.50312 69.4699 5.50312C69.1642 5.50312 68.8853 5.43702 68.6333 5.3048C68.3854 5.16845 68.1891 4.98046 68.0445 4.74082C67.904 4.49705 67.8338 4.22229 67.8338 3.91654C67.8338 3.61079 67.904 3.33809 68.0445 3.09845C68.1891 2.85881 68.3854 2.67289 68.6333 2.54067C68.8812 2.40845 69.1601 2.34235 69.4699 2.34235C69.7468 2.34235 69.9967 2.39813 70.2199 2.50968C70.443 2.62124 70.6227 2.78238 70.759 2.9931V2.36714H71.1805ZM69.5133 5.11267C69.7488 5.11267 69.9616 5.06309 70.1517 4.96393C70.3417 4.86064 70.4884 4.71809 70.5917 4.5363C70.6991 4.3545 70.7529 4.14791 70.7529 3.91654C70.7529 3.68516 70.6991 3.48064 70.5917 3.30298C70.4884 3.12118 70.3417 2.9807 70.1517 2.88154C69.9658 2.77824 69.753 2.7266 69.5133 2.7266C69.2778 2.7266 69.065 2.77618 68.875 2.87534C68.689 2.9745 68.5424 3.11498 68.4349 3.29678C68.3317 3.47857 68.28 3.68516 68.28 3.91654C68.28 4.14791 68.3317 4.3545 68.4349 4.5363C68.5424 4.71809 68.689 4.86064 68.875 4.96393C69.065 5.06309 69.2778 5.11267 69.5133 5.11267ZM75.2495 4.13345H72.5226C72.5473 4.47226 72.6775 4.74702 72.913 4.95773C73.1485 5.16432 73.446 5.26761 73.8055 5.26761C74.0079 5.26761 74.1938 5.23249 74.3632 5.16226C74.5326 5.08788 74.6793 4.98046 74.8033 4.83998L75.0512 5.12507C74.9066 5.2986 74.7248 5.43082 74.5058 5.52172C74.2909 5.61261 74.0534 5.65806 73.7931 5.65806C73.4584 5.65806 73.1609 5.58782 72.9006 5.44734C72.6444 5.30273 72.4441 5.10441 72.2994 4.85238C72.1548 4.60034 72.0825 4.31525 72.0825 3.99711C72.0825 3.67896 72.1507 3.39387 72.287 3.14184C72.4275 2.8898 72.6176 2.69354 72.8572 2.55307C73.101 2.41259 73.3737 2.34235 73.6753 2.34235C73.9769 2.34235 74.2476 2.41259 74.4872 2.55307C74.7268 2.69354 74.9148 2.8898 75.0512 3.14184C75.1875 3.38974 75.2557 3.67483 75.2557 3.99711L75.2495 4.13345ZM73.6753 2.7204C73.3613 2.7204 73.0969 2.82163 72.882 3.02408C72.6713 3.22241 72.5515 3.48271 72.5226 3.80498H74.8343C74.8053 3.48271 74.6835 3.22241 74.4686 3.02408C74.2579 2.82163 73.9935 2.7204 73.6753 2.7204ZM76.5728 3.00549C76.6761 2.78651 76.829 2.62124 77.0314 2.50968C77.238 2.39813 77.4921 2.34235 77.7937 2.34235V2.76998L77.6884 2.76378C77.3454 2.76378 77.0769 2.86914 76.8827 3.07986C76.6885 3.29058 76.5914 3.586 76.5914 3.96612V5.62708H76.1514V2.36714H76.5728V3.00549ZM80.4464 5.42875C80.3637 5.50312 80.2605 5.56097 80.1365 5.60228C80.0167 5.63947 79.8907 5.65806 79.7584 5.65806C79.4527 5.65806 79.2172 5.57543 79.0519 5.41016C78.8866 5.24489 78.804 5.01145 78.804 4.70983V2.73899H78.2214V2.36714H78.804V1.65441H79.244V2.36714H80.2357V2.73899H79.244V4.68504C79.244 4.87923 79.2916 5.02797 79.3866 5.13127C79.4858 5.23043 79.6262 5.28001 79.808 5.28001C79.8989 5.28001 79.9857 5.26555 80.0683 5.23663C80.1551 5.2077 80.2295 5.16639 80.2914 5.11267L80.4464 5.42875ZM81.2474 2.36714H81.6874V5.62708H81.2474V2.36714ZM81.4705 1.65441C81.3796 1.65441 81.3032 1.62343 81.2412 1.56145C81.1792 1.49947 81.1483 1.4251 81.1483 1.33834C81.1483 1.2557 81.1792 1.1834 81.2412 1.12142C81.3032 1.05944 81.3796 1.02846 81.4705 1.02846C81.5614 1.02846 81.6379 1.05944 81.6998 1.12142C81.7618 1.17926 81.7928 1.2495 81.7928 1.33214C81.7928 1.42304 81.7618 1.49947 81.6998 1.56145C81.6379 1.62343 81.5614 1.65441 81.4705 1.65441ZM84.5914 2.34235C84.8971 2.34235 85.1739 2.41259 85.4218 2.55307C85.6698 2.68941 85.8639 2.8836 86.0044 3.13564C86.1449 3.38768 86.2151 3.67483 86.2151 3.99711C86.2151 4.32351 86.1449 4.61273 86.0044 4.86477C85.8639 5.11681 85.6698 5.31306 85.4218 5.45354C85.1781 5.58989 84.9012 5.65806 84.5914 5.65806C84.3269 5.65806 84.0873 5.60435 83.8724 5.49693C83.6617 5.38537 83.4882 5.22423 83.3518 5.01351V6.82941H82.9118V2.36714H83.3333V3.01169C83.4655 2.79684 83.639 2.63157 83.8539 2.51588C84.0728 2.40019 84.3187 2.34235 84.5914 2.34235ZM84.5604 5.26761C84.7876 5.26761 84.9942 5.21597 85.1801 5.11267C85.3661 5.00525 85.5107 4.85444 85.614 4.66025C85.7214 4.46606 85.7751 4.24501 85.7751 3.99711C85.7751 3.7492 85.7214 3.53022 85.614 3.34016C85.5107 3.14597 85.3661 2.99516 85.1801 2.88774C84.9942 2.78031 84.7876 2.7266 84.5604 2.7266C84.329 2.7266 84.1204 2.78031 83.9344 2.88774C83.7526 2.99516 83.608 3.14597 83.5006 3.34016C83.3973 3.53022 83.3457 3.7492 83.3457 3.99711C83.3457 4.24501 83.3973 4.46606 83.5006 4.66025C83.608 4.85444 83.7526 5.00525 83.9344 5.11267C84.1204 5.21597 84.329 5.26761 84.5604 5.26761ZM87.986 5.65806C87.7216 5.65806 87.4675 5.62088 87.2237 5.54651C86.9841 5.468 86.7961 5.37091 86.6597 5.25522L86.858 4.90815C86.9944 5.01558 87.1659 5.10441 87.3724 5.17465C87.579 5.24076 87.7939 5.27381 88.017 5.27381C88.3145 5.27381 88.5335 5.22836 88.6739 5.13746C88.8185 5.04243 88.8909 4.91022 88.8909 4.74082C88.8909 4.621 88.8516 4.52803 88.7731 4.46193C88.6946 4.39169 88.5954 4.34004 88.4756 4.30699C88.3558 4.2698 88.1967 4.23468 87.9984 4.20163C87.734 4.15205 87.5212 4.10247 87.36 4.05288C87.1989 3.99917 87.0605 3.91034 86.9448 3.78639C86.8333 3.66244 86.7775 3.49097 86.7775 3.27199C86.7775 2.99929 86.8911 2.77618 87.1183 2.60265C87.3456 2.42911 87.6617 2.34235 88.0666 2.34235C88.2773 2.34235 88.488 2.37127 88.6987 2.42911C88.9094 2.48283 89.083 2.55513 89.2193 2.64603L89.0272 2.99929C88.7586 2.81336 88.4384 2.7204 88.0666 2.7204C87.7856 2.7204 87.5728 2.76998 87.4282 2.86914C87.2877 2.9683 87.2175 3.09845 87.2175 3.25959C87.2175 3.38354 87.2568 3.48271 87.3353 3.55708C87.4179 3.63145 87.5191 3.68723 87.6389 3.72441C87.7588 3.75747 87.924 3.79259 88.1347 3.82977C88.395 3.87935 88.6037 3.92893 88.7607 3.97851C88.9177 4.02809 89.052 4.11279 89.1635 4.23262C89.2751 4.35244 89.3309 4.5177 89.3309 4.72842C89.3309 5.01351 89.2111 5.24076 88.9714 5.41016C88.7359 5.57543 88.4074 5.65806 87.986 5.65806Z" fill="#002523"/>
</svg>
