<svg width="24" height="24" viewBox="0 0 24 24" fill="none" xmlns="http://www.w3.org/2000/svg">
<path d="M4.906 0.5L4.719 1.28L1.029 18.28L0.75 19.5H5.625L5.031 22.28L4.75 23.5H11.72L11.875 22.687L12.905 17.875H15.595C19.357 17.875 22.66 15.431 23.5 11.5C23.94 9.434 23.474 7.684 22.5 6.5C21.71 5.54 20.64 4.962 19.53 4.687C19.318 3.701 18.865 2.857 18.25 2.219C17.11 1.033 15.534 0.5 14.062 0.5H4.908H4.906ZM6.531 2.5H14.065C15.045 2.5 16.127 2.88 16.815 3.594C17.502 4.309 17.905 5.328 17.533 7.064C16.873 10.154 14.538 11.874 11.597 11.874H7.28L7.125 12.656L6.095 17.5H3.25L6.53 2.5H6.531ZM9.065 3.97L8.877 4.75L7.847 9.375L7.564 10.595H11.096C12.873 10.595 14.409 9.301 14.846 7.562H14.876C14.883 7.542 14.872 7.522 14.876 7.5C15.096 6.624 14.956 5.727 14.471 5.062C13.973 4.382 13.138 3.969 12.251 3.969H9.065V3.97ZM10.658 5.97H12.252C12.566 5.97 12.732 6.06 12.847 6.22C12.963 6.378 13.047 6.638 12.94 7.03V7.063C12.752 7.873 11.798 8.593 11.097 8.593H10.067L10.659 5.969L10.658 5.97ZM19.596 6.844C20.126 7.06 20.618 7.354 20.971 7.781C21.551 8.491 21.874 9.466 21.531 11.065C20.871 14.157 18.536 15.877 15.595 15.877H11.28L11.125 16.657L10.095 21.5H7.25L7.688 19.5H7.718L7.875 18.687L8.905 13.875H11.595C15.357 13.875 18.66 11.431 19.5 7.5C19.548 7.274 19.567 7.062 19.594 6.844H19.596Z" fill="#6D7D8B"/>
</svg>
