<svg width="97" height="51" viewBox="0 0 97 51" fill="none" xmlns="http://www.w3.org/2000/svg">
<path fill-rule="evenodd" clip-rule="evenodd" d="M54.6719 32.1004H59.6316C59.857 29.4233 60.1106 29.3951 60.6179 27.1408H65.6057V32.1004H70.5654V37.0882C65.3239 37.201 65.6057 37.0601 65.6057 43.0342H60.6179C59.857 39.3708 60.4206 40.7516 59.6316 37.0882H54.6719V32.1004ZM70.5654 0.2854C75.0178 4.14603 74.2005 4.00514 76.9058 9.86654C79.1038 14.6289 83.4999 13.9808 83.4999 19.1941C83.4999 28.3243 68.5928 29.6488 68.5928 20.1803C68.5928 15.6998 70.9599 13.1918 74.5387 12.2336C73.6088 8.14757 70.9035 2.6525 66.1975 1.66621C63.295 1.07444 62.1678 2.70886 59.2089 3.83606C40.6384 10.8528 34.8615 -4.36427 26.0131 5.44231C23.5614 8.14757 23.7869 8.23211 22.8569 12.2336C26.1821 17.1933 35.6224 21.6457 31.7899 38.0745C28.2956 38.8917 28.5211 39.0608 23.8432 39.0608C24.3505 32.974 25.1113 36.3556 29.8173 34.1012C29.6483 26.8308 26.943 21.3921 20.8562 18.1796C13.8676 24.2664 13.8957 27.9016 13.8957 35.0875C20.4053 35.0875 18.32 34.9747 19.8699 37.0882C16.1501 42.4424 8.9361 37.8773 10.4014 29.7051C13.5294 12.3745 16.8828 20.6876 20.4898 9.86654C22.0679 5.18869 23.7587 2.96248 26.8303 0.2854C10.5142 0.651738 -3.04033 25.9572 0.594871 35.3974C2.99015 41.6534 13.3885 45.4295 20.4898 47.3739C36.1296 51.6854 60.0261 51.5163 75.9477 47.4302C83.9789 45.3731 93.7292 42.4424 96.2653 35.8765C100.211 25.6472 87.7832 1.72257 70.5654 0.2854Z" fill="#006967"/>
</svg>
