<svg width="24" height="24" viewBox="0 0 24 24" fill="none" xmlns="http://www.w3.org/2000/svg">
<path d="M21.6188 5.14286H3.75C3.33562 5.14286 3 4.75929 3 4.28571C3 3.81214 3.33562 3.42857 3.75 3.42857H21.75C22.1644 3.42857 22.5 3.045 22.5 2.57143C22.5 1.15125 21.4927 0 20.25 0H3C1.34297 0 0 1.53482 0 3.42857V20.5714C0 22.4652 1.34297 24 3 24H21.6188C22.9322 24 24 22.8466 24 21.4286V7.71429C24 6.29625 22.9322 5.14286 21.6188 5.14286ZM19.5 16.2857C18.6717 16.2857 18 15.518 18 14.5714C18 13.6248 18.6717 12.8571 19.5 12.8571C20.3283 12.8571 21 13.6248 21 14.5714C21 15.518 20.3283 16.2857 19.5 16.2857Z" fill="#6D7D8B"/>
</svg>
