<svg width="97" height="52" viewBox="0 0 97 52" fill="none" xmlns="http://www.w3.org/2000/svg">
<path fill-rule="evenodd" clip-rule="evenodd" d="M63.094 27.5924C69.4492 27.5924 69.1087 27.9613 69.1087 21.6061H75.0951V27.5924H81.1099V33.6072H75.0951V39.6219H69.1087V33.6072H63.094V27.5924ZM0.0243283 30.5998C0.0243283 37.6643 -1.19564 41.92 13.6426 47.0269C42.2694 56.9001 97.3951 51.7365 96.9979 33.749C96.7709 21.9181 88.8836 9.77518 78.4429 4.24275C68.4278 -1.0627 68.2009 0.611209 64.853 2.34187C56.4267 6.73944 45.5321 8.29986 36.7653 4.89529C33.758 3.73207 26.3246 -6.2263 9.75573 10.3142C5.52838 14.5416 0.0243283 22.6558 0.0243283 30.5998Z" fill="#006967"/>
</svg>
